<?xml version="1.0" standalone="no"?>
<!DOCTYPE svg PUBLIC "-//W3C//DTD SVG 20010904//EN"
 "http://www.w3.org/TR/2001/REC-SVG-20010904/DTD/svg10.dtd">
<svg version="1.0" xmlns="http://www.w3.org/2000/svg"
 width="512.000000pt" height="512.000000pt" viewBox="0 0 512.000000 512.000000"
 preserveAspectRatio="xMidYMid meet">
<metadata>
Created by potrace 1.11, written by Peter Selinger 2001-2013
</metadata>
<g transform="translate(0.000000,512.000000) scale(0.100000,-0.100000)"
fill="#000000" stroke="none">
<path d="M2261 4999 c-313 -33 -616 -138 -855 -296 -124 -81 -300 -254 -375
-368 -236 -360 -301 -831 -175 -1272 32 -115 129 -310 196 -398 30 -38 86
-112 125 -162 81 -105 116 -172 115 -215 -1 -47 -40 -96 -233 -297 -340 -354
-429 -497 -429 -688 0 -218 119 -402 449 -690 308 -269 736 -447 1189 -494
149 -15 542 -6 682 15 411 65 787 225 1049 449 333 284 539 841 482 1303 -37
295 -145 593 -275 759 -237 300 -261 342 -245 415 13 55 49 114 157 249 192
240 282 405 312 572 46 255 -204 544 -725 837 -247 138 -602 247 -917 281
-113 13 -406 12 -527 0z m550 -354 c390 -51 738 -209 1066 -482 54 -45 119
-103 145 -130 l47 -48 -178 -271 c-98 -149 -186 -274 -195 -277 -45 -17 -84
-7 -138 36 -125 103 -330 224 -501 297 -208 88 -422 119 -503 71 -77 -46 -108
-124 -84 -212 26 -93 150 -184 528 -388 277 -150 368 -203 467 -274 351 -251
557 -554 611 -898 25 -155 15 -411 -20 -536 -121 -435 -493 -743 -1033 -857
-434 -92 -921 -44 -1281 124 -189 89 -419 268 -576 449 -108 125 -139 168
-130 183 21 35 410 511 432 528 45 36 74 27 159 -51 197 -179 513 -341 767
-393 96 -20 237 -20 303 -1 90 27 142 114 129 219 -15 131 -116 216 -601 506
-132 79 -279 170 -327 202 -315 211 -554 499 -641 773 -75 239 -58 558 41 777
94 208 274 394 487 505 137 71 360 138 515 156 91 10 414 5 511 -8z"/>
</g>
</svg>
