<?xml version="1.0" standalone="no"?>
<!DOCTYPE svg PUBLIC "-//W3C//DTD SVG 20010904//EN"
 "http://www.w3.org/TR/2001/REC-SVG-20010904/DTD/svg10.dtd">
<svg version="1.0" xmlns="http://www.w3.org/2000/svg"
 width="512.000000pt" height="512.000000pt" viewBox="0 0 512.000000 512.000000"
 preserveAspectRatio="xMidYMid meet">
<metadata>
Created by potrace 1.11, written by Peter Selinger 2001-2013
</metadata>
<g transform="translate(0.000000,512.000000) scale(0.100000,-0.100000)"
fill="#000000" stroke="none">
<path d="M2320 5004 c-14 -2 -65 -9 -115 -15 -559 -68 -1032 -365 -1247 -785
-165 -322 -208 -712 -119 -1069 55 -216 120 -346 270 -537 116 -149 156 -208
176 -263 17 -44 17 -45 -9 -100 -20 -40 -78 -107 -212 -246 -339 -350 -418
-472 -431 -664 -13 -195 80 -363 333 -603 347 -331 688 -501 1169 -584 175
-30 605 -33 785 -5 371 58 662 164 921 335 206 137 349 299 463 522 209 412
238 814 91 1269 -57 177 -127 304 -257 468 -148 186 -183 244 -182 303 1 69
36 129 178 305 137 169 257 378 285 497 27 116 8 230 -60 344 -43 75 -229 261
-334 336 -366 260 -693 398 -1109 469 -91 16 -176 22 -346 24 -124 2 -236 2
-250 -1z m524 -360 c409 -57 762 -231 1129 -558 53 -48 97 -91 97 -96 0 -14
-340 -524 -362 -542 -41 -36 -88 -24 -174 43 -149 115 -383 245 -544 303 -169
61 -332 83 -413 57 -71 -24 -127 -121 -112 -194 24 -112 120 -189 463 -373
309 -167 455 -252 565 -334 327 -243 523 -528 581 -845 65 -355 -4 -679 -199
-937 -271 -358 -775 -555 -1370 -535 -195 7 -324 24 -475 62 -359 91 -670 304
-945 648 l-64 80 219 272 c121 150 226 275 235 279 9 3 32 6 51 6 28 0 47 -12
116 -76 280 -258 754 -443 1011 -394 82 15 121 39 147 90 52 101 32 200 -59
290 -78 78 -201 160 -533 359 -157 94 -332 205 -389 247 -259 193 -467 448
-549 673 -42 115 -60 231 -60 390 0 230 48 399 162 572 197 300 542 487 972
529 116 11 360 3 500 -16z"/>
</g>
</svg>
