<?xml version="1.0" standalone="no"?>
<!DOCTYPE svg PUBLIC "-//W3C//DTD SVG 20010904//EN"
 "http://www.w3.org/TR/2001/REC-SVG-20010904/DTD/svg10.dtd">
<svg version="1.0" xmlns="http://www.w3.org/2000/svg"
 width="512.000000pt" height="512.000000pt" viewBox="0 0 512.000000 512.000000"
 preserveAspectRatio="xMidYMid meet">
<metadata>
Created by potrace 1.11, written by Peter Selinger 2001-2013
</metadata>
<g transform="translate(0.000000,512.000000) scale(0.100000,-0.100000)"
fill="#000000" stroke="none">
<path d="M2261 4999 c-313 -33 -616 -138 -855 -296 -124 -81 -300 -254 -375
-368 -236 -360 -301 -831 -175 -1272 32 -115 129 -310 196 -398 30 -38 86
-112 125 -162 81 -105 116 -172 115 -215 -1 -47 -40 -96 -233 -297 -340 -354
-429 -497 -429 -688 0 -218 119 -402 449 -690 308 -269 736 -447 1189 -494
149 -15 542 -6 682 15 411 65 787 225 1049 449 333 284 539 841 482 1303 -37
295 -145 593 -275 759 -237 300 -261 342 -245 415 13 55 49 114 157 249 192
240 282 405 312 572 46 255 -204 544 -725 837 -247 138 -602 247 -917 281
-113 13 -406 12 -527 0z m593 -354 c414 -65 756 -236 1119 -559 l97 -88 0 -93
0 -94 -174 -265 c-96 -145 -184 -269 -195 -275 -47 -26 -87 -14 -173 53 -204
157 -480 296 -691 346 -89 22 -219 26 -264 9 -37 -14 -83 -58 -83 -80 0 -27
77 -99 170 -160 47 -31 179 -107 295 -169 378 -204 483 -269 632 -394 269
-224 430 -478 491 -775 14 -69 17 -131 15 -318 -2 -310 -27 -449 -106 -608
-162 -325 -481 -556 -910 -660 -327 -80 -778 -71 -1096 21 -328 95 -634 311
-886 623 l-60 74 -5 96 -6 96 215 268 c118 147 222 272 232 278 10 5 34 9 53
9 31 0 47 -10 110 -68 132 -122 277 -214 471 -297 328 -140 616 -150 689 -25
19 32 19 33 1 67 -42 77 -182 178 -549 397 -302 181 -367 223 -466 300 -279
218 -473 484 -536 734 -32 126 -49 425 -34 577 26 252 124 460 299 635 203
202 476 319 851 364 71 9 398 -4 494 -19z"/>
</g>
</svg>
