<?xml version="1.0" standalone="no"?>
<!DOCTYPE svg PUBLIC "-//W3C//DTD SVG 20010904//EN"
 "http://www.w3.org/TR/2001/REC-SVG-20010904/DTD/svg10.dtd">
<svg version="1.0" xmlns="http://www.w3.org/2000/svg"
 width="512.000000pt" height="512.000000pt" viewBox="0 0 512.000000 512.000000"
 preserveAspectRatio="xMidYMid meet">
<metadata>
Created by potrace 1.11, written by Peter Selinger 2001-2013
</metadata>
<g transform="translate(0.000000,512.000000) scale(0.100000,-0.100000)"
fill="#000000" stroke="none">
<path d="M2320 5004 c-14 -2 -65 -9 -115 -15 -559 -68 -1032 -365 -1247 -785
-165 -322 -208 -712 -119 -1069 55 -216 120 -346 270 -537 116 -149 156 -208
176 -263 17 -44 17 -45 -9 -100 -20 -40 -78 -107 -212 -246 -339 -350 -418
-472 -431 -664 -13 -195 80 -363 333 -603 347 -331 688 -501 1169 -584 175
-30 605 -33 785 -5 371 58 662 164 921 335 206 137 349 299 463 522 209 412
238 814 91 1269 -57 177 -127 304 -257 468 -148 186 -183 244 -182 303 1 69
36 129 178 305 137 169 257 378 285 497 27 116 8 230 -60 344 -43 75 -229 261
-334 336 -366 260 -693 398 -1109 469 -91 16 -176 22 -346 24 -124 2 -236 2
-250 -1z m524 -360 c410 -57 762 -231 1129 -559 62 -56 96 -93 93 -102 -15
-38 -355 -541 -370 -546 -48 -19 -82 -7 -161 54 -151 116 -385 246 -545 303
-169 61 -332 83 -413 57 -62 -21 -117 -103 -117 -177 0 -11 12 -43 26 -72 42
-85 145 -159 442 -318 309 -167 455 -252 565 -334 326 -243 522 -527 581 -845
50 -274 15 -562 -95 -775 -238 -459 -790 -720 -1474 -697 -452 16 -744 112
-1060 351 -101 76 -261 235 -353 350 l-70 89 218 272 c121 150 226 275 235
279 9 3 32 6 51 6 28 0 47 -12 116 -76 281 -258 763 -446 1013 -394 82 17 111
33 142 83 22 35 27 54 27 112 1 59 -3 77 -26 117 -55 93 -187 188 -604 436
-328 195 -443 278 -599 436 -186 187 -302 372 -352 563 -36 140 -44 386 -15
523 27 133 72 241 144 351 197 300 542 487 972 529 116 11 360 3 500 -16z"/>
</g>
</svg>
