<?xml version="1.0" standalone="no"?>
<!DOCTYPE svg PUBLIC "-//W3C//DTD SVG 20010904//EN"
 "http://www.w3.org/TR/2001/REC-SVG-20010904/DTD/svg10.dtd">
<svg version="1.0" xmlns="http://www.w3.org/2000/svg"
 width="512.000000pt" height="512.000000pt" viewBox="0 0 512.000000 512.000000"
 preserveAspectRatio="xMidYMid meet">
<metadata>
Created by potrace 1.11, written by Peter Selinger 2001-2013
</metadata>
<g transform="translate(0.000000,512.000000) scale(0.100000,-0.100000)"
fill="#000000" stroke="none">
<path d="M2280 5004 c-438 -52 -765 -185 -1036 -422 -64 -55 -164 -172 -221
-257 -291 -433 -310 -1098 -46 -1550 23 -38 89 -131 147 -205 116 -148 166
-232 166 -277 0 -48 -53 -118 -219 -288 -254 -260 -353 -386 -409 -517 -24
-57 -26 -75 -27 -188 0 -113 3 -131 26 -188 61 -144 160 -268 355 -446 154
-141 276 -229 435 -311 226 -116 444 -187 703 -227 186 -29 555 -31 746 -5
681 95 1180 400 1414 864 87 173 154 401 177 595 28 243 -39 606 -161 866 -47
100 -87 160 -206 308 -110 138 -164 227 -164 272 0 53 45 131 158 274 224 284
322 478 322 641 0 217 -206 454 -612 704 -281 173 -529 267 -888 335 -84 16
-157 20 -365 23 -143 2 -276 1 -295 -1z m590 -369 c52 -9 140 -27 195 -41 317
-81 644 -271 937 -546 l67 -63 -169 -255 c-93 -140 -181 -265 -195 -277 -45
-39 -84 -30 -165 37 -135 112 -421 267 -598 324 -265 86 -420 66 -467 -59 -39
-102 4 -196 130 -287 81 -58 138 -91 510 -295 237 -131 346 -201 472 -306 254
-212 412 -454 474 -727 26 -114 36 -350 19 -472 -50 -372 -293 -683 -673 -863
-323 -153 -742 -208 -1154 -150 -331 46 -598 161 -843 360 -82 68 -249 238
-324 332 l-58 73 218 271 c129 160 228 275 243 281 40 15 67 2 146 -72 148
-136 383 -270 605 -344 140 -46 220 -59 348 -54 91 3 114 7 151 28 56 31 81
74 88 148 9 94 -9 136 -90 217 -90 88 -178 148 -537 363 -386 230 -545 352
-693 530 -192 231 -280 436 -294 688 -34 634 397 1089 1117 1178 80 10 448 -3
540 -19z"/>
</g>
</svg>
